<?xml version="1.0" standalone="no"?>
<!DOCTYPE svg PUBLIC "-//W3C//DTD SVG 20010904//EN"
 "http://www.w3.org/TR/2001/REC-SVG-20010904/DTD/svg10.dtd">
<svg version="1.0" xmlns="http://www.w3.org/2000/svg"
 width="275.000000pt" height="275.000000pt" viewBox="0 0 275.000000 275.000000"
 preserveAspectRatio="xMidYMid meet">
<metadata>
Created by potrace 1.11, written by Peter Selinger 2001-2013
</metadata>
<g transform="translate(0.000000,275.000000) scale(0.100000,-0.100000)"
fill="#000000" stroke="none">
<path d="M1438 1643 c-3 -552 -4 -569 -24 -603 -40 -69 -158 -78 -220 -16 -33
33 -54 101 -54 176 0 26 -5 40 -12 40 -7 0 -80 -7 -163 -15 -82 -8 -151 -15
-152 -15 -9 0 -1 -113 13 -176 48 -233 204 -354 456 -354 113 0 176 14 266 57
111 54 184 149 221 283 12 45 15 162 18 623 l4 567 -175 0 -175 0 -3 -567z
m300 77 c4 -668 -7 -746 -123 -865 -64 -66 -125 -96 -235 -117 -117 -22 -275
8 -363 69 -79 55 -133 163 -152 304 -7 55 -9 54 130 64 l91 7 11 -67 c7 -38
22 -83 37 -105 70 -107 271 -107 325 -1 35 68 41 158 41 664 l0 488 118 -3
117 -3 3 -435z"/>
</g>
</svg>
